<svg xmlns="http://www.w3.org/2000/svg" viewBox="0 0 1200 630" width="1200" height="630">
  <defs>
    <linearGradient id="bg" x1="0%" y1="0%" x2="100%" y2="100%">
      <stop offset="0%" stop-color="#08090a"/>
      <stop offset="50%" stop-color="#0f172a"/>
      <stop offset="100%" stop-color="#020617"/>
    </linearGradient>
    <filter id="glow" x="-20%" y="-20%" width="140%" height="140%">
      <feGaussianBlur stdDeviation="15" result="blur" />
      <feComposite in="SourceGraphic" in2="blur" operator="over" />
    </filter>
  </defs>

  <!-- Background -->
  <rect width="1200" height="630" fill="url(#bg)" />

  <!-- Grid Lines -->
  <g stroke="rgba(255,255,255,0.03)" stroke-width="1">
    <line x1="0" y1="150" x2="1200" y2="150" />
    <line x1="0" y1="300" x2="1200" y2="300" />
    <line x1="0" y1="450" x2="1200" y2="450" />
    <line x1="300" y1="0" x2="300" y2="630" />
    <line x1="600" y1="0" x2="600" y2="630" />
    <line x1="900" y1="0" x2="900" y2="630" />
  </g>

  <!-- Glow Circles -->
  <circle cx="600" cy="120" r="220" fill="#06b6d4" opacity="0.12" filter="url(#glow)" />
  <circle cx="850" cy="280" r="150" fill="#6366f1" opacity="0.08" filter="url(#glow)" />

  <!-- Main Card -->
  <rect x="220" y="140" width="760" height="360" rx="20" fill="rgba(18, 20, 29, 0.75)" stroke="rgba(255,255,255,0.12)" stroke-width="1.5" />

  <!-- Code Window -->
  <rect x="260" y="210" width="680" height="240" rx="12" fill="#090d16" stroke="rgba(255,255,255,0.08)" stroke-width="1" />

  <!-- Window Control Dots -->
  <circle cx="285" cy="232" r="5" fill="#ef4444" opacity="0.8" />
  <circle cx="300" cy="232" r="5" fill="#f59e0b" opacity="0.8" />
  <circle cx="315" cy="232" r="5" fill="#10b981" opacity="0.8" />

  <!-- Code Text -->
  <text x="285" y="270" font-family="monospace" font-size="15" fill="#94a3b8">Raw Text: <tspan fill="#38bdf8">HelpMini AI Tools</tspan></text>
  <text x="285" y="305" font-family="monospace" font-size="15" fill="#94a3b8">Base64  : <tspan fill="#4ade80">SGVscE1pbmkgQUkgVG9vbHM=</tspan></text>
  <text x="285" y="340" font-family="monospace" font-size="15" fill="#94a3b8">URL Enc : <tspan fill="#a5b4fc">https%3A%2F%2Fhelpmini.com%2F</tspan></text>

  <!-- Status Tag -->
  <rect x="285" y="380" width="230" height="30" rx="6" fill="rgba(6,182,212,0.15)" stroke="rgba(6,182,212,0.3)" stroke-width="1" />
  <text x="298" y="400" font-family="-apple-system, sans-serif" font-size="12" font-weight="600" fill="#38bdf8">✓ UTF-8 &amp; Client-Side Safe</text>

  <!-- Title & Badge -->
  <text x="260" y="182" font-family="-apple-system, sans-serif" font-size="22" font-weight="bold" fill="#ffffff">🔤 Base64 &amp; URL Encoder / Decoder</text>
  <rect x="490" y="75" width="220" height="36" rx="18" fill="rgba(6,182,212,0.15)" stroke="rgba(6,182,212,0.3)" stroke-width="1" />
  <text x="600" y="98" font-family="-apple-system, sans-serif" font-size="13" font-weight="600" fill="#38bdf8" text-anchor="middle">⚡ WEB UTILITY TOOL</text>
</svg>
